<?xml version="1.0" encoding="UTF-8"?>
<svg id="b" data-name="Capa 3" xmlns="http://www.w3.org/2000/svg" viewBox="0 0 294.07 86.59">
  <line x1="3.04" y1="76.89" x2="42.56" y2="76.89" fill="#c5a68d" stroke="#c5a68d" stroke-miterlimit="10"/>
  <line x1="247.81" y1="76.99" x2="286.89" y2="76.96" fill="#c5a68d" stroke="#e0bc8b" stroke-miterlimit="10"/>
  <g>
    <polyline points="130.24 85.88 130.24 69.39 139.72 69.39" fill="none" stroke="#c5a68d" stroke-miterlimit="10" stroke-width="2"/>
    <line x1="138.81" y1="77.37" x2="130.02" y2="77.37" fill="none" stroke="#c5a68d" stroke-miterlimit="10" stroke-width="2"/>
    <g>
      <polyline points="159.54 85.88 159.54 69.39 169.01 69.39" fill="none" stroke="#c5a68d" stroke-miterlimit="10" stroke-width="2"/>
      <line x1="168.1" y1="77.37" x2="159.31" y2="77.37" fill="none" stroke="#c5a68d" stroke-miterlimit="10" stroke-width="2"/>
    </g>
    <g>
      <g>
        <polyline points="188.37 85.87 188.37 69.38 197.84 69.38" fill="none" stroke="#c5a68d" stroke-miterlimit="10" stroke-width="2"/>
        <line x1="196.94" y1="77.36" x2="188.15" y2="77.36" fill="none" stroke="#c5a68d" stroke-miterlimit="10" stroke-width="2"/>
      </g>
      <line x1="198.62" y1="84.87" x2="188.4" y2="84.87" fill="none" stroke="#c5a68d" stroke-miterlimit="10" stroke-width="2"/>
    </g>
    <g>
      <g>
        <polyline points="218.59 85.59 218.59 69.11 228.06 69.11" fill="none" stroke="#c5a68d" stroke-miterlimit="10" stroke-width="2"/>
        <line x1="227.15" y1="77.08" x2="218.36" y2="77.08" fill="none" stroke="#c5a68d" stroke-miterlimit="10" stroke-width="2"/>
      </g>
      <line x1="228.83" y1="84.59" x2="218.62" y2="84.59" fill="none" stroke="#c5a68d" stroke-miterlimit="10" stroke-width="2"/>
    </g>
    <path d="M74.8,72.13c-4.07-4.53-11.57-2.31-12.7,3.63-1.51,8.25,6.5,12.09,12.7,7.06" fill="none" stroke="#c5a68d" stroke-miterlimit="10" stroke-width="2"/>
    <ellipse cx="101.83" cy="77.49" rx="7.72" ry="8.1" fill="none" stroke="#c5a68d" stroke-miterlimit="10" stroke-width="2"/>
  </g>
  <text transform="translate(0 50.6)" fill="#c5a68d" font-family="Constantia, Constantia" font-size="60"><tspan x="0" y="0" letter-spacing=".23em">P</tspan><tspan x="48.56" y="0" letter-spacing=".24em">UR</tspan><tspan x="159.86" y="0" letter-spacing=".22em">P</tspan><tspan x="207.98" y="0" letter-spacing=".24em">LE</tspan></text>
</svg>